<svg width="32" height="25" viewBox="0 0 32 25" fill="none" xmlns="http://www.w3.org/2000/svg">
<mask id="mask0_647_8436" style="mask-type:luminance" maskUnits="userSpaceOnUse" x="0" y="0" width="32" height="25">
<rect y="0.5" width="32" height="24" fill="white"/>
</mask>
<g mask="url(#mask0_647_8436)">
<path fill-rule="evenodd" clip-rule="evenodd" d="M0 0.5H32V24.5H0V0.5Z" fill="#F7FCFF"/>
<path fill-rule="evenodd" clip-rule="evenodd" d="M0 15.1666V17.1666H32V15.1666H0Z" fill="#E31D1C"/>
<path fill-rule="evenodd" clip-rule="evenodd" d="M0 18.8334V20.8334H32V18.8334H0Z" fill="#E31D1C"/>
<path fill-rule="evenodd" clip-rule="evenodd" d="M0 7.83337V9.83337H32V7.83337H0Z" fill="#E31D1C"/>
<path fill-rule="evenodd" clip-rule="evenodd" d="M0 22.5V24.5H32V22.5H0Z" fill="#E31D1C"/>
<path fill-rule="evenodd" clip-rule="evenodd" d="M0 11.5V13.5H32V11.5H0Z" fill="#E31D1C"/>
<path fill-rule="evenodd" clip-rule="evenodd" d="M0 0.5V2.5H32V0.5H0Z" fill="#E31D1C"/>
<path fill-rule="evenodd" clip-rule="evenodd" d="M0 4.16663V6.16663H32V4.16663H0Z" fill="#E31D1C"/>
<rect y="0.5" width="20" height="13" fill="#2E42A5"/>
<path fill-rule="evenodd" clip-rule="evenodd" d="M1.72197 3.43871L0.996087 3.94759L1.24115 3.04198L0.596436 2.46807H1.43852L1.72095 1.729L2.05212 2.46807H2.76998L2.20594 3.04198L2.4243 3.94759L1.72197 3.43871ZM5.72197 3.43871L4.99609 3.94759L5.24115 3.04198L4.59644 2.46807H5.43852L5.72095 1.729L6.05212 2.46807H6.76998L6.20594 3.04198L6.4243 3.94759L5.72197 3.43871ZM8.99609 3.94759L9.72197 3.43871L10.4243 3.94759L10.2059 3.04198L10.77 2.46807H10.0521L9.72095 1.729L9.43852 2.46807H8.59644L9.24115 3.04198L8.99609 3.94759ZM13.722 3.43871L12.9961 3.94759L13.2412 3.04198L12.5964 2.46807H13.4385L13.721 1.729L14.0521 2.46807H14.77L14.2059 3.04198L14.4243 3.94759L13.722 3.43871ZM0.996087 7.94759L1.72197 7.43871L2.4243 7.94759L2.20594 7.04198L2.76998 6.46807H2.05212L1.72095 5.729L1.43852 6.46807H0.596436L1.24115 7.04198L0.996087 7.94759ZM5.72197 7.43871L4.99609 7.94759L5.24115 7.04198L4.59644 6.46807H5.43852L5.72095 5.729L6.05212 6.46807H6.76998L6.20594 7.04198L6.4243 7.94759L5.72197 7.43871ZM8.99609 7.94759L9.72197 7.43871L10.4243 7.94759L10.2059 7.04198L10.77 6.46807H10.0521L9.72095 5.729L9.43852 6.46807H8.59644L9.24115 7.04198L8.99609 7.94759ZM13.722 7.43871L12.9961 7.94759L13.2412 7.04198L12.5964 6.46807H13.4385L13.721 5.729L14.0521 6.46807H14.77L14.2059 7.04198L14.4243 7.94759L13.722 7.43871ZM0.996087 11.9476L1.72197 11.4387L2.4243 11.9476L2.20594 11.042L2.76998 10.4681H2.05212L1.72095 9.729L1.43852 10.4681H0.596436L1.24115 11.042L0.996087 11.9476ZM5.72197 11.4387L4.99609 11.9476L5.24115 11.042L4.59644 10.4681H5.43852L5.72095 9.729L6.05212 10.4681H6.76998L6.20594 11.042L6.4243 11.9476L5.72197 11.4387ZM8.99609 11.9476L9.72197 11.4387L10.4243 11.9476L10.2059 11.042L10.77 10.4681H10.0521L9.72095 9.729L9.43852 10.4681H8.59644L9.24115 11.042L8.99609 11.9476ZM13.722 11.4387L12.9961 11.9476L13.2412 11.042L12.5964 10.4681H13.4385L13.721 9.729L14.0521 10.4681H14.77L14.2059 11.042L14.4243 11.9476L13.722 11.4387ZM16.9961 3.94759L17.722 3.43871L18.4243 3.94759L18.2059 3.04198L18.77 2.46807H18.0521L17.721 1.729L17.4385 2.46807H16.5964L17.2412 3.04198L16.9961 3.94759ZM17.722 7.43871L16.9961 7.94759L17.2412 7.04198L16.5964 6.46807H17.4385L17.721 5.729L18.0521 6.46807H18.77L18.2059 7.04198L18.4243 7.94759L17.722 7.43871ZM16.9961 11.9476L17.722 11.4387L18.4243 11.9476L18.2059 11.042L18.77 10.4681H18.0521L17.721 9.729L17.4385 10.4681H16.5964L17.2412 11.042L16.9961 11.9476ZM3.72197 5.43871L2.99609 5.94759L3.24115 5.04198L2.59644 4.46807H3.43852L3.72095 3.729L4.05212 4.46807H4.76998L4.20594 5.04198L4.4243 5.94759L3.72197 5.43871ZM6.99609 5.94759L7.72197 5.43871L8.4243 5.94759L8.20594 5.04198L8.76998 4.46807H8.05212L7.72095 3.729L7.43852 4.46807H6.59644L7.24115 5.04198L6.99609 5.94759ZM11.722 5.43871L10.9961 5.94759L11.2412 5.04198L10.5964 4.46807H11.4385L11.721 3.729L12.0521 4.46807H12.77L12.2059 5.04198L12.4243 5.94759L11.722 5.43871ZM2.99609 9.94759L3.72197 9.43871L4.4243 9.94759L4.20594 9.04198L4.76998 8.46807H4.05212L3.72095 7.729L3.43852 8.46807H2.59644L3.24115 9.04198L2.99609 9.94759ZM7.72197 9.43871L6.99609 9.94759L7.24115 9.04198L6.59644 8.46807H7.43852L7.72095 7.729L8.05212 8.46807H8.76998L8.20594 9.04198L8.4243 9.94759L7.72197 9.43871ZM10.9961 9.94759L11.722 9.43871L12.4243 9.94759L12.2059 9.04198L12.77 8.46807H12.0521L11.721 7.729L11.4385 8.46807H10.5964L11.2412 9.04198L10.9961 9.94759ZM15.722 5.43871L14.9961 5.94759L15.2412 5.04198L14.5964 4.46807H15.4385L15.721 3.729L16.0521 4.46807H16.77L16.2059 5.04198L16.4243 5.94759L15.722 5.43871ZM14.9961 9.94759L15.722 9.43871L16.4243 9.94759L16.2059 9.04198L16.77 8.46807H16.0521L15.721 7.729L15.4385 8.46807H14.5964L15.2412 9.04198L14.9961 9.94759Z" fill="#F7FCFF"/>
</g>
</svg>
