<svg width="24" height="25" viewBox="0 0 24 25" fill="none" xmlns="http://www.w3.org/2000/svg">
<path d="M13.7517 5.19329C13.7517 4.35839 13.1416 3.64883 12.3161 3.5238C12.1066 3.49207 11.8935 3.49207 11.6839 3.5238C10.8584 3.64883 10.2482 4.35839 10.2482 5.1933V6.37397C9.77662 6.50858 9.32734 6.69618 8.90726 6.92992L8.07205 6.09471C7.48168 5.50435 6.54849 5.43407 5.87637 5.92937C5.70578 6.05509 5.55509 6.20578 5.42937 6.37637C4.93407 7.04849 5.00434 7.9817 5.59471 8.57207L6.42992 9.40728C6.19617 9.82735 6.00857 10.2766 5.87397 10.7483H4.6933C3.85839 10.7483 3.14883 11.3584 3.0238 12.1839C2.99207 12.3935 2.99207 12.6066 3.0238 12.8161C3.14883 13.6416 3.85839 14.2518 4.69329 14.2518H5.87396C6.00857 14.7234 6.19617 15.1727 6.42992 15.5927L5.59471 16.4279C5.00434 17.0183 4.93407 17.9515 5.42937 18.6236C5.55509 18.7942 5.70578 18.9449 5.87638 19.0706C6.5485 19.5659 7.48169 19.4957 8.07205 18.9053L8.90726 18.0701C9.32734 18.3038 9.77662 18.4914 10.2482 18.626V19.8067C10.2482 20.6416 10.8584 21.3512 11.6839 21.4762C11.8934 21.5079 12.1066 21.5079 12.3161 21.4762C13.1416 21.3512 13.7517 20.6416 13.7517 19.8067V18.6261C14.2234 18.4914 14.6727 18.3038 15.0927 18.0701L15.9279 18.9053C16.5183 19.4957 17.4515 19.5659 18.1236 19.0706C18.2942 18.9449 18.4449 18.7942 18.5706 18.6236C19.0659 17.9515 18.9957 17.0183 18.4053 16.428L17.5701 15.5928C17.8038 15.1727 17.9914 14.7234 18.1261 14.2518H19.3067C20.1416 14.2518 20.8512 13.6416 20.9762 12.8161C21.0079 12.6066 21.0079 12.3935 20.9762 12.1839C20.8512 11.3584 20.1416 10.7483 19.3067 10.7483H18.126C17.9914 10.2766 17.8038 9.82734 17.5701 9.40726L18.4053 8.57205C18.9957 7.98168 19.0659 7.04849 18.5706 6.37637C18.4449 6.20578 18.2942 6.05509 18.1236 5.92937C17.4515 5.43407 16.5183 5.50434 15.9279 6.09471L15.0927 6.92992C14.6727 6.69617 14.2234 6.50857 13.7517 6.37396V5.19329Z" stroke="#363853" stroke-width="1.5" stroke-linecap="round" stroke-linejoin="round"/>
<path d="M9.5 12.5C9.5 11.1193 10.6193 10 12 10C13.3807 10 14.5 11.1193 14.5 12.5C14.5 13.8807 13.3807 15 12 15C10.6193 15 9.5 13.8807 9.5 12.5Z" stroke="#363853" stroke-width="1.5"/>
</svg>
