<svg width="24" height="25" viewBox="0 0 24 25" fill="none" xmlns="http://www.w3.org/2000/svg">
<path d="M3 18.933C3 16.9308 4.45485 15.2254 6.43204 14.9098L6.61013 14.8814C8.19336 14.6287 9.80664 14.6287 11.3899 14.8814L11.568 14.9098C13.5451 15.2254 15 16.9308 15 18.933C15 19.7984 14.2984 20.5 13.433 20.5H4.56697C3.70156 20.5 3 19.7984 3 18.933Z" stroke="#363853" stroke-width="1.5"/>
<path d="M12.5 8C12.5 9.933 10.933 11.5 9 11.5C7.067 11.5 5.5 9.933 5.5 8C5.5 6.067 7.067 4.5 9 4.5C10.933 4.5 12.5 6.067 12.5 8Z" stroke="#363853" stroke-width="1.5"/>
<path d="M15 11.5C16.933 11.5 18.5 9.933 18.5 8C18.5 6.067 16.933 4.5 15 4.5M17.3899 20.5H19.433C20.2984 20.5 21 19.7984 21 18.933C21 16.9308 19.5451 15.2254 17.568 14.9098V14.9098C17.4494 14.8909 17.3293 14.8814 17.2093 14.8814C16.8895 14.8814 16.7902 14.8814 16.2412 14.8814" stroke="#363853" stroke-width="1.5" stroke-linecap="round"/>
</svg>
