<svg width="24" height="24" viewBox="0 0 24 24" fill="none" xmlns="http://www.w3.org/2000/svg">
<g clip-path="url(#clip0_1357_1833)">
<path fill-rule="evenodd" clip-rule="evenodd" d="M20.25 5.5H3.75C3.33579 5.5 3 5.83579 3 6.25C3 6.66421 3.33579 7 3.75 7H20.25C20.6642 7 21 6.66421 21 6.25C21 5.83579 20.6642 5.5 20.25 5.5ZM20.25 11.2998H3.75C3.33579 11.2998 3 11.6356 3 12.0498C3 12.464 3.33579 12.7998 3.75 12.7998H20.25C20.6642 12.7998 21 12.464 21 12.0498C21 11.6356 20.6642 11.2998 20.25 11.2998ZM3.75 17H20.25C20.6642 17 21 17.3358 21 17.75C21 18.1642 20.6642 18.5 20.25 18.5H3.75C3.33579 18.5 3 18.1642 3 17.75C3 17.3358 3.33579 17 3.75 17Z" fill="white"/>
</g>
<defs>
<clipPath id="clip0_1357_1833">
<rect width="24" height="24" fill="white"/>
</clipPath>
</defs>
</svg>
