<svg width="24" height="24" viewBox="0 0 24 24" fill="none" xmlns="http://www.w3.org/2000/svg">
<g clip-path="url(#clip0_1914_545)">
<path d="M20.27 7.90977C21.25 8.39977 21.25 9.19981 20.27 9.69981L18.12 10.7498L12.44 13.5298C12.15 13.6398 11.81 13.6398 11.52 13.5298L5.88002 10.7498L3.73003 9.69981C2.75003 9.19981 2.75003 8.39977 3.73003 7.90977L11.55 4.08982C11.84 3.97982 12.18 3.97982 12.47 4.08982L20.27 7.90977V7.90977Z" stroke="#B3B3B3" stroke-width="1.5" stroke-miterlimit="10" stroke-linecap="round"/>
<path d="M18.12 10.75V15.86C18.1 16.23 17.98 16.58 17.79 16.89C17.59 17.2 17.32 17.46 17 17.64L12.45 19.89C12.3 19.96 12.15 19.99 11.99 19.99C11.83 19.99 11.68 19.96 11.53 19.89L6.98001 17.64C6.66001 17.46 6.38 17.2 6.19 16.89C5.99 16.58 5.87999 16.22 5.85999 15.86V10.75" stroke="#B3B3B3" stroke-width="1.5" stroke-miterlimit="10" stroke-linecap="round"/>
</g>
<defs>
<clipPath id="clip0_1914_545">
<rect width="24" height="24" fill="white"/>
</clipPath>
</defs>
</svg>
