<svg width="26" height="26" viewBox="0 0 26 26" fill="none" xmlns="http://www.w3.org/2000/svg">
<path d="M5.17606 10.9982C5.79472 10.284 7.49606 8.99854 9.35207 9.56986" stroke="#00A960"/>
<path d="M11.904 4.09466C11.0727 3.38375 11.9041 1 13.0641 1C14.224 1 24.4321 4.33271 24.8961 5.28491C25.3601 6.23711 24.2001 7.90347 22.8081 8.61762C19.56 7.42736 13.296 5.28491 11.904 4.09466Z" stroke="#00A960"/>
<path d="M12.3682 4.5708C11.5949 5.3643 10.5121 6.23716 9.35223 9.80791C8.2841 13.0962 7.03215 15.045 8.19214 16.4733C10.1903 18.9337 12.3682 15.045 12.6002 12.4265M22.8082 17.1875H17.7042" stroke="#00A960"/>
<path d="M22.8081 17.1875C23.6588 17.6636 24.4321 19.0919 22.3441 20.2822" stroke="#00A960"/>
<path d="M22.8082 20.044C22.5762 20.0434 17.7042 20.0298 17.7042 20.0298" stroke="#00A960"/>
<path d="M22.1121 20.0441C23.7361 20.9963 23.0401 21.9485 22.3441 22.6626" stroke="#00A960"/>
<path d="M22.3441 22.6625C21.8801 23.1386 19.328 22.9005 19.328 22.9005C18.4059 21.7179 17.2311 21.5039 16.3121 23.1386M16.312 24.0908C16.315 24.0802 16.309 23.1491 16.3121 23.1386M16.3121 23.1386C16.3121 21.4723 15.1521 20.044 13.5281 21.7103" stroke="#00A960"/>
<path d="M13.528 24.091C13.992 20.2821 12.136 19.568 10.512 21.4724" stroke="#00A960"/>
<path d="M7.96009 23.1388C7.03208 22.742 6.10408 22.4246 5.17608 21.7105V10.9982C4.40274 10.5221 1.92801 10.5221 1.46407 10.9982" stroke="#00A960"/>
<path d="M1.46401 10.998C0.76801 11.7122 1 21.2342 1.23201 22.1864C2.15999 22.9006 4.71193 22.4245 5.176 21.9484" stroke="#00A960"/>
<path d="M10.7441 24.3291C10.9055 23.1046 10.9761 22.4245 10.5121 21.4723C9.58409 20.5201 8.05501 20.749 7.96121 22.6626C7.86005 23.9987 8.33241 25.4717 10.7452 24.329" stroke="#00A960"/>
<path d="M10.744 24.329C11.2081 24.8844 12.4145 25.6145 13.5281 24.0909" stroke="#00A960"/>
<path d="M13.5281 24.0909C13.9148 24.6464 15.0129 25.424 16.3121 24.0909" stroke="#00A960"/>
<path d="M16.3121 24.0909C16.6987 24.7257 17.7969 25.6145 19.0961 24.0909" stroke="#00A960"/>
<path d="M12.6001 12.4265V11.4743H23.5041C23.1174 10.9188 22.5761 9.80793 22.8081 8.61768" stroke="#00A960"/>
<path d="M23.5041 11.4742C24.8961 11.9503 25.8241 13.1406 23.5041 14.3309" stroke="#00A960"/>
<path d="M23.7362 14.3308H17.7042" stroke="#00A960"/>
<path d="M22.5761 14.3308C24.2001 14.5689 24.9889 16.2352 22.5761 17.1874" stroke="#00A960"/>
<path d="M18.8641 24.3289C19.0961 24.0909 19.5137 23.6624 19.3281 22.9006" stroke="#00A960"/>
<path d="M3.31998 11.9503V21.4723" stroke="#00A960"/>
</svg>
