<svg width="24" height="25" viewBox="0 0 24 25" fill="none" xmlns="http://www.w3.org/2000/svg">
<path d="M8.69628 9.55793H14.7279M8.69628 13.0141H12.5346M13.1107 19.4268H14.1721C17.0589 19.4268 19.5701 17.3499 20.2476 14.4021C20.5841 12.9382 20.5841 11.4113 20.2476 9.94741L20.1588 9.56088C19.5057 6.71958 17.377 4.51204 14.6641 3.86264L14.283 3.77141C12.7712 3.40953 11.2013 3.40953 9.68953 3.77141L9.46648 3.82481C6.65677 4.49738 4.45212 6.78371 3.77571 9.72642C3.40585 11.3355 3.40923 13.0287 3.77909 14.6378C4.46607 17.6265 6.48688 20.1138 9.19777 21.2728L9.31593 21.3233C10.489 21.8249 11.8329 21.2208 12.3142 19.9902C12.4467 19.6515 12.7622 19.4268 13.1107 19.4268Z" stroke="#363853" stroke-width="1.5" stroke-linecap="round"/>
</svg>
